<svg width="30" height="30" viewBox="0 0 30 30" fill="none" xmlns="http://www.w3.org/2000/svg">
<path d="M16.4511 5.56866C16.3046 5.31587 16.0934 5.10584 15.8387 4.95978C15.5841 4.81373 15.295 4.73682 15.0007 4.73682C14.7065 4.73682 14.4174 4.81373 14.1627 4.95978C13.9081 5.10584 13.6968 5.31587 13.5503 5.56866L3.40196 22.6727C2.7256 23.8132 3.53664 25.2631 4.85236 25.2631L25.1476 25.2631C26.4633 25.2631 27.2759 23.8118 26.598 22.6727L16.4511 5.56866ZM14.9978 10.603C15.7896 10.603 16.4097 11.2803 16.3298 12.0616L15.8118 17.203C15.7944 17.4049 15.7011 17.5931 15.5503 17.7302C15.3996 17.8673 15.2024 17.9434 14.9978 17.9434C14.7931 17.9434 14.5959 17.8673 14.4452 17.7302C14.2945 17.5931 14.2012 17.4049 14.1838 17.203L13.6658 12.0616C13.6472 11.8773 13.6678 11.6911 13.7262 11.5151C13.7847 11.3391 13.8797 11.1771 14.0052 11.0397C14.1307 10.9023 14.2838 10.7924 14.4548 10.7172C14.6257 10.642 14.8107 10.6031 14.9978 10.603ZM15.0007 19.3991C15.3933 19.3991 15.7697 19.5535 16.0473 19.8285C16.3248 20.1034 16.4807 20.4763 16.4807 20.8651C16.4807 21.2539 16.3248 21.6268 16.0473 21.9017C15.7697 22.1766 15.3933 22.3311 15.0007 22.3311C14.6082 22.3311 14.2318 22.1766 13.9542 21.9017C13.6767 21.6268 13.5207 21.2539 13.5207 20.8651C13.5207 20.4763 13.6767 20.1034 13.9542 19.8285C14.2318 19.5535 14.6082 19.3991 15.0007 19.3991Z" fill="#FA1515"/>
</svg>
