<svg width="38" height="38" viewBox="0 0 38 38" fill="none" xmlns="http://www.w3.org/2000/svg">
<rect x="2.5" y="2.5" width="33" height="33" rx="16.5" fill="#B4EBFA"/>
<rect x="2.5" y="2.5" width="33" height="33" rx="16.5" stroke="#E1F7FD" stroke-width="5"/>
<path fill-rule="evenodd" clip-rule="evenodd" d="M9.5 19C9.5 24.2487 13.7513 28.5 19 28.5C24.2488 28.5 28.5 24.2487 28.5 19C28.5 13.7512 24.2488 9.5 19 9.5C13.7513 9.5 9.5 13.7512 9.5 19ZM22.9069 15.7819C23.1206 15.5681 23.4175 15.4375 23.75 15.4375C24.4031 15.4375 24.9375 15.9719 24.9375 16.625C24.9375 16.9575 24.8069 17.2544 24.5931 17.4681L18.6556 23.4056C18.4419 23.6194 18.145 23.75 17.8125 23.75C17.48 23.75 17.1831 23.6194 16.9694 23.4056L13.4069 19.8431C13.1931 19.6294 13.0625 19.3325 13.0625 19C13.0625 18.3469 13.5969 17.8125 14.25 17.8125C14.5825 17.8125 14.8794 17.9431 15.0931 18.1569L17.8125 20.8881L22.9069 15.7819Z" fill="#01B0D1"/>
</svg>
