<svg width="28" height="28" viewBox="0 0 28 28" fill="none" xmlns="http://www.w3.org/2000/svg">
<path d="M15.354 5.19753C15.2173 4.96159 15.0201 4.76556 14.7824 4.62925C14.5447 4.49293 14.2749 4.42114 14.0003 4.42114C13.7256 4.42114 13.4559 4.49293 13.2182 4.62925C12.9805 4.76556 12.7833 4.96159 12.6466 5.19753L3.17477 21.1613C2.5435 22.2258 3.30047 23.579 4.52848 23.579L23.4707 23.579C24.6987 23.579 25.4571 22.2244 24.8244 21.1613L15.354 5.19753ZM13.9975 9.89621C14.7365 9.89621 15.3153 10.5284 15.2407 11.2577L14.7573 16.0562C14.741 16.2447 14.6539 16.4203 14.5133 16.5483C14.3726 16.6763 14.1885 16.7473 13.9975 16.7473C13.8065 16.7473 13.6225 16.6763 13.4818 16.5483C13.3411 16.4203 13.254 16.2447 13.2378 16.0562L12.7543 11.2577C12.737 11.0856 12.7562 10.9118 12.8108 10.7475C12.8653 10.5832 12.954 10.4321 13.0711 10.3038C13.1882 10.1756 13.3312 10.073 13.4907 10.0028C13.6503 9.93263 13.8229 9.89631 13.9975 9.89621ZM14.0003 18.1059C14.3666 18.1059 14.718 18.2501 14.977 18.5067C15.2361 18.7633 15.3816 19.1113 15.3816 19.4742C15.3816 19.8371 15.2361 20.1851 14.977 20.4417C14.718 20.6983 14.3666 20.8425 14.0003 20.8425C13.6339 20.8425 13.2826 20.6983 13.0235 20.4417C12.7645 20.1851 12.619 19.8371 12.619 19.4742C12.619 19.1113 12.7645 18.7633 13.0235 18.5067C13.2826 18.2501 13.6339 18.1059 14.0003 18.1059Z" fill="#FACC15"/>
</svg>
