<svg width="13" height="13" viewBox="0 0 13 13" fill="none" xmlns="http://www.w3.org/2000/svg">
<path fill-rule="evenodd" clip-rule="evenodd" d="M6.49756 0.00488281C2.90766 0.00488281 0 2.91254 0 6.50244C0 10.0923 2.90766 13 6.49756 13C10.0875 13 12.9951 10.0923 12.9951 6.50244C12.9951 2.91254 10.0875 0.00488281 6.49756 0.00488281ZM7.30974 9.75125C7.30974 10.1998 6.9461 10.5634 6.49754 10.5634C6.04898 10.5634 5.68535 10.1998 5.68535 9.75125C5.68535 9.30269 6.04898 8.93905 6.49754 8.93905C6.9461 8.93905 7.30974 9.30269 7.30974 9.75125ZM6.49754 8.12677C6.9461 8.12677 7.30974 7.76313 7.30974 7.31457V3.2536C7.30974 2.80503 6.9461 2.4414 6.49754 2.4414C6.04898 2.4414 5.68535 2.80503 5.68535 3.2536V7.31457C5.68535 7.76313 6.04898 8.12677 6.49754 8.12677Z" fill="#01B0D1"/>
</svg>
