<?xml version="1.0" encoding="UTF-8" standalone="no"?>
<svg
   width="25"
   height="25"
   viewBox="0 0 25 25"
   fill="none"
   version="1.1"
   id="svg35"
   xmlns="http://www.w3.org/2000/svg"
   xmlns:svg="http://www.w3.org/2000/svg">
  <path
     fill-rule="evenodd"
     clip-rule="evenodd"
     d="m 12.479571,24.999985 c 6.892314,0 12.479608,-5.578187 12.479608,-12.459229 0,-6.8810785 -5.587294,-12.45925976 -12.479608,-12.45925976 C 5.5872942,0.08149624 0,5.6596775 0,12.540756 0,19.421798 5.5872942,24.999985 12.479571,24.999985 Z M 14.963812,8.7703952 12.465379,5.0530013 v -3.71e-5 3.71e-5 l -3.8e-5,-3.71e-5 v 3.71e-5 L 9.9669455,8.7703952 7.4685495,12.498101 h -3.71e-5 v 3.7e-5 l -3.72e-5,3.7e-5 7.43e-5,-3.7e-5 4.9967915,2.513314 h 3.8e-5 l 4.996792,-2.513314 7.4e-5,3.7e-5 -3.7e-5,-3.7e-5 3.7e-5,-3.7e-5 h -3.7e-5 z m -2.498433,7.2546318 4.729256,-2.514204 -4.729294,6.441947 -4.7197451,-6.441947 4.7197451,2.514204 z"
     fill="#00b2d2"
     id="path2"
     style="stroke-width:0.0371223" />
  <g
     style="mix-blend-mode:screen"
     id="g6"
     transform="scale(0.03715253,0.03709197)">
    <path
       fill-rule="evenodd"
       clip-rule="evenodd"
       d="m 310.604,503.866 -102.123,-139.614 6.68,3.564 c -73.903,-79.804 -54.899,-256.224 34.901,-350.7874 -18.025,15.8583 -46.037,33.3196 -73.643,50.5282 -32.61,20.328 -64.655,40.3032 -79.0031,56.8672 -0.2168,0.243 -0.4241,0.486 -0.6285,0.726 h -2e-4 c -0.3783,0.444 -0.7468,0.877 -1.1479,1.277 l -42.7158,50.385 c -44.41511,52.31 -51.21499,121 -48.5887,184.867 1.15865,28.351 9.605,80.795 22.5999,107.915 74.9123,60.217 196.3153,67.427 283.6693,34.272 z m 107.667,-115.897 -82.753,44.066 -45.417,-24.233 c 15.137,2.952 33.173,4.432 54.507,3.214 19.581,0.006 38.434,-7.405 52.745,-20.735 7.892,-7.35 14.079,-16.199 18.263,-25.925 l 5.897,-2.971 c -0.544,9.715 -1.684,18.556 -3.242,26.584 z m 5.799,-119.682 c 16.129,6.05 27.139,13.419 34.115,18.806 81.194,63.203 78.169,222.638 9.461,328.131 30.458,-13.953 58.349,-32.891 82.512,-56.026 l 12.098,-11.653 c 3.412,-3.164 6.747,-6.405 10.081,-9.646 51.105,-48.926 96.371,-114.318 99.085,-180.068 2.094,-50.624 -3.707,-122.787 -36.2,-168.01 -78.603,-47.298 -193.324,-48.136 -272.599,-13.198 l 40.144,59.827 z"
       fill="#007290"
       id="path4" />
  </g>
  <path
     d="m 24.999972,12.486342 c 0.0035,1.642025 -0.316948,3.268619 -0.942931,4.786682 -0.62602,1.518025 -1.545285,2.897735 -2.705187,4.060049 -1.159902,1.162351 -2.537666,2.084494 -4.054455,2.713685 -1.516789,0.629154 -3.142769,0.953041 -4.784837,0.953041 C 9.8181868,25.015155 7.1926549,24.149318 5.036025,22.534222 3.24936,21.212227 1.8488286,19.436449 0.97958953,17.390976 L 1.8014777,16.489567 2.2521899,16.012379 c 0.7728283,2.222958 2.247947,4.134159 4.2026158,5.444989 1.9547059,1.31083 4.2827943,1.950147 6.6328403,1.821438 2.350009,-0.128709 4.594356,-1.018508 6.394173,-2.535013 1.799817,-1.516468 3.057319,-3.577335 3.58273,-5.871436 l -1.961951,-1.988352 2.624752,-2.412572 0.954448,-0.8748514 c 0.213404,0.9483674 0.320106,1.9176544 0.318174,2.8897604 z"
     fill="url(#paint0_linear_758_481)"
     id="path8"
     style="fill:url(#paint0_linear_758_481);stroke-width:0.0371223" />
  <path
     d="m 24.999972,12.486342 c 0.0035,1.642025 -0.316948,3.268619 -0.942931,4.786682 -0.62602,1.518025 -1.545285,2.897735 -2.705187,4.060049 -1.159902,1.162351 -2.537666,2.084494 -4.054455,2.713685 -1.516789,0.629154 -3.142769,0.953041 -4.784837,0.953041 C 9.8181868,25.015155 7.1926549,24.149318 5.036025,22.534222 3.24936,21.212227 1.8488286,19.436449 0.97958953,17.390976 L 1.8014777,16.489567 2.2521899,16.012379 c 0.7728283,2.222958 2.247947,4.134159 4.2026158,5.444989 1.9547059,1.31083 4.2827943,1.950147 6.6328403,1.821438 2.350009,-0.128709 4.594356,-1.018508 6.394173,-2.535013 1.799817,-1.516468 3.057319,-3.577335 3.58273,-5.871436 l -1.961951,-1.988352 2.624752,-2.412572 0.954448,-0.8748514 c 0.213404,0.9483674 0.320106,1.9176544 0.318174,2.8897604 z"
     fill="url(#paint1_linear_758_481)"
     id="path10"
     style="fill:url(#paint1_linear_758_481);stroke-width:0.0371223" />
  <path
     d="M 24.367339,8.500477 23.465833,9.3478429 22.988572,9.7715444 C 22.351777,7.3606409 20.901566,5.2430235 18.882735,3.7761475 16.863903,2.3092567 14.400096,1.5829812 11.907236,1.7199099 9.4144131,1.8568349 7.0451965,2.8485776 5.1996076,4.5277049 3.3540409,6.2068582 2.1451051,8.4705808 1.776905,10.936677 l 2.1211752,1.959495 -1.962088,1.986015 -0.4772651,0.476631 -0.87497917,0.900334 C 0.18652872,15.036526 -0.01044669,13.757855 4.2676366e-4,12.472507 4.2306327e-4,10.832412 0.32432113,9.2084142 0.95357904,7.6935042 1.5828351,6.1785941 2.5050946,4.8024822 3.6675562,3.644 4.8300142,2.4855066 6.2098591,1.5673766 7.7280599,0.94215076 9.2462979,0.31692785 10.873096,-0.00310816 12.515312,3.7399912e-4 13.498107,-0.00747292 14.478005,0.10818688 15.431896,0.34462034 c 2.058548,0.49368404 3.958082,1.50083476 5.520792,2.92722106 1.562709,1.4263753 2.737583,3.2253727 3.414651,5.2286356 z"
     fill="url(#paint2_linear_758_481)"
     id="path12"
     style="fill:url(#paint2_linear_758_481);stroke-width:0.0371223" />
  <path
     d="M 1.9450574,14.906074 1.4683682,15.38304 C 0.66767177,12.466424 1.0576767,9.3509957 2.5525829,6.7221027 4.0474706,4.0932096 6.5248382,2.1662116 9.4396397,1.3650214 12.354441,0.56383126 15.467971,0.95407582 18.095212,2.4499095 c 2.627241,1.4958225 4.553043,3.9747156 5.353754,6.891331 L 22.972262,9.7652388 C 22.336248,7.3525919 20.887782,5.2334537 18.871366,3.7655392 16.85495,2.2976024 14.394152,1.5708076 11.904301,1.7078328 9.4144503,1.8448579 7.0481315,2.8373128 5.2047718,4.517653 3.3613971,6.1979932 2.1539177,8.4633479 1.7861597,10.931188 l 2.118608,1.960941 -1.9597103,1.987424 z"
     fill="#01b0d1"
     id="path14"
     style="stroke-width:0.0371223" />
  <path
     d="m 23.918351,12.486491 c -0.01115,2.667691 -0.956046,5.247326 -2.670672,7.291279 -1.714664,2.043953 -4.090865,3.423217 -6.716323,3.898477 -2.625457,0.475296 -5.3344709,0.01658 -7.657024,-1.296513 -2.322553,-1.313093 -4.1120565,-3.397735 -5.0580044,-5.89217 l 0.4505227,-0.476966 c 0.7724976,2.221772 2.2469959,4.131934 4.2008473,5.442059 1.9538142,1.310126 4.2809374,1.949109 6.6299794,1.820437 2.349043,-0.128635 4.592424,-1.017952 6.391461,-2.533604 1.799037,-1.515689 3.056018,-3.575443 3.581169,-5.868283 l -1.961096,-1.987276 2.623637,-2.411237 c 0.115545,0.665207 0.177552,1.338649 0.185503,2.013797 z"
     fill="#01b0d1"
     id="path16"
     style="stroke-width:0.0371223" />
  <defs
     id="defs33">
    <linearGradient
       id="paint0_linear_758_481"
       x1="349.91901"
       y1="-338.16599"
       x2="349.91901"
       y2="1409.9"
       gradientUnits="userSpaceOnUse"
       gradientTransform="scale(0.03715253,0.03709197)">
      <stop
         stop-color="#EB3C9C"
         id="stop18" />
      <stop
         offset="1"
         stop-color="#FFCD35"
         id="stop20" />
    </linearGradient>
    <linearGradient
       id="paint1_linear_758_481"
       x1="349.358"
       y1="-338.33099"
       x2="349.358"
       y2="1410.59"
       gradientUnits="userSpaceOnUse"
       gradientTransform="scale(0.03715253,0.03709197)">
      <stop
         stop-color="#01718F"
         id="stop23" />
      <stop
         offset="1"
         stop-color="#01B0D1"
         id="stop25" />
    </linearGradient>
    <linearGradient
       id="paint2_linear_758_481"
       x1="327.65701"
       y1="-630.224"
       x2="327.65701"
       y2="1215.86"
       gradientUnits="userSpaceOnUse"
       gradientTransform="scale(0.03715253,0.03709197)">
      <stop
         stop-color="#01718F"
         id="stop28" />
      <stop
         offset="1"
         stop-color="#01B0D1"
         id="stop30" />
    </linearGradient>
  </defs>
</svg>
