<svg width="24" height="24" viewBox="0 0 24 24" fill="none" xmlns="http://www.w3.org/2000/svg">
<path d="M14.9438 8.26265C15.2472 7.89922 15.1975 7.35921 14.8341 7.05578C14.4706 6.75234 13.9298 6.80206 13.6272 7.16549L9.34144 11.4513C9.30715 11.4915 9.29087 11.5395 9.26515 11.5841C9.24458 11.6193 9.22058 11.6501 9.20515 11.6887C9.16572 11.789 9.14258 11.8936 9.14258 11.9998C9.14258 12.1061 9.16572 12.2107 9.20515 12.311C9.22058 12.3496 9.24458 12.3804 9.26515 12.4156C9.29087 12.4601 9.30715 12.5081 9.34144 12.5484L13.6272 16.8342C13.9298 17.1985 14.4706 17.2473 14.8341 16.9439C15.1975 16.6413 15.2472 16.1013 14.9438 15.737L11.8298 12.857L10.9727 11.9999L11.8318 11.1408L14.9438 8.26265Z" fill="white"/>
</svg>
