<svg width="25" height="25" viewBox="0 0 25 25" fill="none" xmlns="http://www.w3.org/2000/svg">
<path d="M18.8269 6.73081H11.1346C10.8692 6.73081 10.6538 6.51542 10.6538 6.25004V4.32696C10.6538 4.06158 10.8692 3.84619 11.1346 3.84619H18.8269C19.0923 3.84619 19.3077 4.06158 19.3077 4.32696V6.25004C19.3077 6.51542 19.0923 6.73081 18.8269 6.73081Z" fill="black"/>
<path d="M21.7115 0H19.3077H17.3846H8.25C7.45481 0 6.80769 0.647115 6.80769 1.44231V3.84615H3.44231C2.64712 3.84615 2 4.49327 2 5.28846V23.5577C2 24.3529 2.64712 25 3.44231 25H16.9038C17.699 25 18.3462 24.3529 18.3462 23.5577V21.1538H21.7115C22.5067 21.1538 23.1538 20.5067 23.1538 19.7115V1.44231C23.1538 0.647115 22.5067 0 21.7115 0ZM21.7115 20.1923H19.7885V18.149C19.7885 17.9505 19.9505 17.7885 20.149 17.7885H22.1923V19.7115C22.1923 19.9769 21.9769 20.1923 21.7115 20.1923ZM22.1923 16.8269H20.149C19.4197 16.8269 18.8269 17.4197 18.8269 18.149V20.1923H8.25C7.98462 20.1923 7.76923 19.9769 7.76923 19.7115V8.17308H4.88462V9.13461H6.80769V10.0962H4.88462V11.0577H6.80769V12.0192H4.88462V12.9808H6.80769V13.4615V13.9423H4.88462V14.9038H6.80769V15.8654H4.88462V16.8269H6.80769V19.7115C6.80769 20.5067 7.45481 21.1538 8.25 21.1538H17.3846V23.5577C17.3846 23.8231 17.1692 24.0385 16.9038 24.0385H3.44231C3.17692 24.0385 2.96154 23.8231 2.96154 23.5577V5.28846C2.96154 5.02308 3.17692 4.80769 3.44231 4.80769H7.76923V1.44231C7.76923 1.17692 7.98462 0.961538 8.25 0.961538H21.7115C21.9769 0.961538 22.1923 1.17692 22.1923 1.44231V16.8269Z" fill="black"/>
<path d="M19.3074 10.0962H12.5767V11.0577H19.3074V10.0962Z" fill="black"/>
<path d="M19.3074 14.4233H12.5767V15.3849H19.3074V14.4233Z" fill="black"/>
<path d="M11.6153 8.17334H10.6538V9.13488H11.6153V8.17334Z" fill="black"/>
<path d="M19.3074 8.17334H12.5767V9.13488H19.3074V8.17334Z" fill="black"/>
<path d="M11.6153 12.5H10.6538V13.4615H11.6153V12.5Z" fill="black"/>
<path d="M19.3074 12.5H12.5767V13.4615H19.3074V12.5Z" fill="black"/>
</svg>
