<svg width="19" height="19" viewBox="0 0 19 19" fill="none" xmlns="http://www.w3.org/2000/svg">
<path fill-rule="evenodd" clip-rule="evenodd" d="M9.52561 16C11.2287 15.9932 12.8611 15.3183 14.0716 14.1206C12.9029 15.2769 11.2979 15.9931 9.52561 16ZM14.1206 14.0716C15.2825 12.8974 15.9999 11.2825 15.9999 9.5C16 5.91015 13.0898 3 9.49995 3C5.91866 3 3.01383 5.89629 3 9.47434C3.00676 7.75969 3.69082 6.11674 4.90376 4.90381C6.12274 3.68482 7.77604 3 9.49995 3C11.2239 3 12.8772 3.68482 14.0961 4.90381C15.3151 6.12279 15.9999 7.77609 15.9999 9.5C15.9999 11.2124 15.3243 12.8551 14.1206 14.0716ZM4.85844 14.0504C3.71438 12.8836 3.00681 11.2873 3 9.52566C3.00667 11.2188 3.67379 12.8421 4.85844 14.0504ZM9.47429 16C7.71268 15.9931 6.11633 15.2856 4.94952 14.1415C6.15785 15.3262 7.78111 15.9933 9.47429 16ZM10.2556 8.35286L8.39576 8.58594L8.32914 8.8955L8.69557 8.96131C8.93364 9.019 8.98076 9.10513 8.92876 9.34319L8.32914 12.1609C8.17151 12.8898 8.41445 13.2326 8.98564 13.2326C9.42845 13.2326 9.94276 13.0279 10.1759 12.7468L10.2474 12.4088C10.0858 12.5518 9.8477 12.6086 9.69007 12.6086C9.46664 12.6086 9.3862 12.4518 9.44307 12.1756L10.2556 8.35286ZM8.92543 7.23078C9.0778 7.38315 9.28446 7.46875 9.49995 7.46875C9.71544 7.46875 9.9221 7.38315 10.0745 7.23078C10.2268 7.0784 10.3124 6.87174 10.3124 6.65625C10.3124 6.44076 10.2268 6.2341 10.0745 6.08173C9.9221 5.92935 9.71544 5.84375 9.49995 5.84375C9.28446 5.84375 9.0778 5.92935 8.92543 6.08173C8.77305 6.2341 8.68745 6.44076 8.68745 6.65625C8.68745 6.87174 8.77305 7.0784 8.92543 7.23078Z" fill="#929295"/>
<circle cx="9.5" cy="9.5" r="6" stroke="#929295"/>
</svg>
