<svg width="26" height="25" viewBox="0 0 26 25" fill="none" xmlns="http://www.w3.org/2000/svg">
<path fill-rule="evenodd" clip-rule="evenodd" d="M12.8116 25C19.7039 25 25.2912 19.4218 25.2912 12.5408C25.2912 5.65974 19.7039 0.081543 12.8116 0.081543C5.91934 0.081543 0.332031 5.65974 0.332031 12.5408C0.332031 19.4218 5.91934 25 12.8116 25ZM12.7974 5.05307L15.2959 8.7705L17.7943 12.4983L12.7974 15.0116L7.80067 12.4984L7.80058 12.4984L7.80062 12.4983L7.80051 12.4983L7.8007 12.4982L10.299 8.77061L12.7974 5.05328V5.05307ZM12.7974 16.0252L17.5267 13.511L12.7974 19.9529L8.07766 13.511L12.7974 16.0252H12.7974Z" fill="#00B2D2"/>
<g style="mix-blend-mode:screen">
<path d="M14.8969 16.6173C15.3273 16.0715 16.0821 14.8541 15.9989 12.5823C15.9494 13.3051 15.6261 13.9821 15.0944 14.4765C14.5627 14.971 13.8623 15.2458 13.1348 15.2456C10.7271 15.3828 9.44999 14.5969 8.88751 14.1597C5.50115 11.5222 6.07511 4.36101 9.62218 0.631836C8.16145 1.9149 4.93534 3.48087 3.951 4.61534C3.92804 4.64105 3.90795 4.66677 3.88499 4.68963L2.298 6.55851C0.64786 8.49882 0.395228 11.0466 0.492801 13.4156C0.535848 14.4672 0.849651 16.4124 1.33245 17.4184C5.19233 20.516 12.3743 19.8321 14.8969 16.6173Z" fill="#007290"/>
<path d="M23.9319 7.04107C19.9962 4.6767 13.6234 5.44232 11.3214 8.36772C10.8979 8.90585 10.1574 10.0909 10.2122 12.2892C10.2441 11.5521 10.5613 10.8557 11.0976 10.3453C11.6339 9.8349 12.3478 9.54995 13.0904 9.5499L13.2547 9.55562C15.5653 9.46116 16.8013 10.2226 17.3545 10.6491C20.3711 12.9934 20.2587 18.9072 17.706 22.8201C18.8376 22.3025 19.8738 21.6001 20.7715 20.742L21.221 20.3098C21.3478 20.1924 21.4716 20.0722 21.5955 19.952C23.4942 18.1372 25.176 15.7117 25.2768 13.2729C25.3546 11.3951 25.1391 8.71845 23.9319 7.04107Z" fill="#007290"/>
</g>
<path fill-rule="evenodd" clip-rule="evenodd" d="M12.7977 5.05284L12.7977 5.05273V5.05294L15.2961 8.77027L17.7945 12.4979L17.7946 12.4979L17.7945 12.498L17.7946 12.498L17.7945 12.498L12.7977 15.0113V10.6148V10.6147L12.7977 15.0113L7.80078 12.4979L7.80087 12.4979L10.2993 8.77016L12.7977 5.05284ZM17.5269 13.5106L12.7977 16.0248L8.07792 13.5106L12.7977 19.9526L17.5269 13.5106Z" fill="white"/>
<path d="M25.3329 12.4864C25.3364 14.1285 25.0159 15.7551 24.39 17.2731C23.764 18.7912 22.8447 20.1709 21.6848 21.3332C20.5249 22.4955 19.1471 23.4177 17.6303 24.0469C16.1135 24.676 14.4876 24.9999 12.8455 24.9999C10.1511 25.0153 7.52556 24.1494 5.36892 22.5343C3.58227 21.2123 2.18174 19.4366 1.3125 17.3911L2.13439 16.4897L2.5851 16.0125C3.35793 18.2354 4.83305 20.1466 6.78773 21.4575C8.74241 22.7683 11.0705 23.4076 13.4206 23.2789C15.7706 23.1502 18.0149 22.2604 19.8147 20.7439C21.6145 19.2274 22.8721 17.1666 23.3975 14.8725L21.4355 12.8841L24.0603 10.4716L25.0147 9.59668C25.2281 10.5451 25.3348 11.5143 25.3329 12.4864Z" fill="url(#paint0_linear_7181_19903)"/>
<path d="M25.3329 12.4864C25.3364 14.1285 25.0159 15.7551 24.39 17.2731C23.764 18.7912 22.8447 20.1709 21.6848 21.3332C20.5249 22.4955 19.1471 23.4177 17.6303 24.0469C16.1135 24.676 14.4876 24.9999 12.8455 24.9999C10.1511 25.0153 7.52556 24.1494 5.36892 22.5343C3.58227 21.2123 2.18174 19.4366 1.3125 17.3911L2.13439 16.4897L2.5851 16.0125C3.35793 18.2354 4.83305 20.1466 6.78773 21.4575C8.74241 22.7683 11.0705 23.4076 13.4206 23.2789C15.7706 23.1502 18.0149 22.2604 19.8147 20.7439C21.6145 19.2274 22.8721 17.1666 23.3975 14.8725L21.4355 12.8841L24.0603 10.4716L25.0147 9.59668C25.2281 10.5451 25.3348 11.5143 25.3329 12.4864Z" fill="url(#paint1_linear_7181_19903)"/>
<path d="M24.6994 8.50049L23.7979 9.34786L23.3206 9.77154C22.6838 7.36064 21.2336 5.24301 19.2148 3.77613C17.1959 2.30926 14.7321 1.58298 12.2393 1.71991C9.74644 1.85684 7.37725 2.84858 5.53166 4.52772C3.68607 6.20687 2.47714 8.47057 2.10894 10.9367L4.23011 12.8962L2.26802 14.8822L1.79076 15.3588L0.915781 16.2592C0.51856 15.0365 0.321585 13.7579 0.332458 12.4725C0.332454 10.8324 0.656353 9.20843 1.28561 7.69351C1.91487 6.17859 2.83713 4.80249 3.99959 3.644C5.16205 2.48551 6.54189 1.56738 8.06011 0.942153C9.57833 0.316928 11.2051 -0.00310816 12.8474 0.000373999C13.8302 -0.00747292 14.8101 0.108187 15.764 0.34462C17.8225 0.838306 19.722 1.84546 21.2847 3.27184C22.8475 4.69823 24.0223 6.49722 24.6994 8.50049Z" fill="url(#paint2_linear_7181_19903)"/>
<path d="M2.27641 14.906L1.79973 15.3829C0.99903 12.4663 1.38903 9.35089 2.88394 6.722C4.37885 4.09311 6.8562 2.16611 9.77101 1.36492C12.6858 0.563727 15.7993 0.953974 18.4266 2.44981C21.0538 3.94564 22.9796 6.42453 23.7803 9.34115L23.3036 9.76513C22.6676 7.35251 21.2192 5.23336 19.2027 3.76543C17.1863 2.2975 14.7255 1.5707 12.2357 1.70773C9.74582 1.84476 7.37948 2.83721 5.53612 4.51756C3.69275 6.19791 2.48528 8.46323 2.11752 10.9311L4.23613 12.892L2.27641 14.8795V14.906Z" fill="#01B0D1"/>
<path d="M24.2505 12.4864C24.2393 15.1542 23.2944 17.7338 21.5798 19.7777C19.8651 21.8217 17.4889 23.201 14.8635 23.6762C12.238 24.1515 9.52898 23.6928 7.20643 22.3797C4.88388 21.0666 3.09438 18.982 2.14844 16.4875L2.59896 16.0106C3.37146 18.2323 4.84595 20.1425 6.7998 21.4526C8.75364 22.7627 11.0808 23.4017 13.4298 23.2731C15.7788 23.1444 18.0222 22.2551 19.8212 20.7394C21.6203 19.2238 22.8773 17.164 23.4024 14.8712L21.4414 12.8839L24.065 10.4727C24.1805 11.1379 24.2425 11.8113 24.2505 12.4864Z" fill="#01B0D1"/>
<defs>
<linearGradient id="paint0_linear_7181_19903" x1="13.3333" y1="-12.5431" x2="13.3333" y2="52.2962" gradientUnits="userSpaceOnUse">
<stop stop-color="#EB3C9C"/>
<stop offset="1" stop-color="#FFCD35"/>
</linearGradient>
<linearGradient id="paint1_linear_7181_19903" x1="13.3125" y1="-12.5493" x2="13.3125" y2="52.3217" gradientUnits="userSpaceOnUse">
<stop stop-color="#01718F"/>
<stop offset="1" stop-color="#01B0D1"/>
</linearGradient>
<linearGradient id="paint2_linear_7181_19903" x1="12.5053" y1="-23.3763" x2="12.5053" y2="45.0987" gradientUnits="userSpaceOnUse">
<stop stop-color="#01718F"/>
<stop offset="1" stop-color="#01B0D1"/>
</linearGradient>
</defs>
</svg>
