<svg width="13" height="13" viewBox="0 0 13 13" fill="none" xmlns="http://www.w3.org/2000/svg">
<g clip-path="url(#clip0_4918_39597)">
<path d="M6.86111 0C6.38225 0 5.923 0.190228 5.58439 0.528835C5.24578 0.867442 5.05556 1.32669 5.05556 1.80556C5.05556 2.28442 5.24578 2.74367 5.58439 3.08228C5.923 3.42088 6.38225 3.61111 6.86111 3.61111C7.33997 3.61111 7.79922 3.42088 8.13783 3.08228C8.47644 2.74367 8.66667 2.28442 8.66667 1.80556C8.66667 1.32669 8.47644 0.867442 8.13783 0.528835C7.79922 0.190228 7.33997 0 6.86111 0ZM2.16667 2.16667C1.78358 2.16667 1.41618 2.31885 1.14529 2.58973C0.874404 2.86062 0.722222 3.22802 0.722222 3.61111C0.722222 3.9942 0.874404 4.3616 1.14529 4.63249C1.41618 4.90337 1.78358 5.05556 2.16667 5.05556C2.54976 5.05556 2.91716 4.90337 3.18804 4.63249C3.45893 4.3616 3.61111 3.9942 3.61111 3.61111C3.61111 3.22802 3.45893 2.86062 3.18804 2.58973C2.91716 2.31885 2.54976 2.16667 2.16667 2.16667ZM10.8333 2.88889C10.6418 2.88889 10.4581 2.96498 10.3226 3.10042C10.1872 3.23587 10.1111 3.41957 10.1111 3.61111C10.1111 3.80266 10.1872 3.98636 10.3226 4.1218C10.4581 4.25724 10.6418 4.33333 10.8333 4.33333C11.0249 4.33333 11.2086 4.25724 11.344 4.1218C11.4795 3.98636 11.5556 3.80266 11.5556 3.61111C11.5556 3.41957 11.4795 3.23587 11.344 3.10042C11.2086 2.96498 11.0249 2.88889 10.8333 2.88889ZM1.08333 6.5C0.796015 6.5 0.520465 6.61414 0.317301 6.8173C0.114137 7.02046 0 7.29602 0 7.58333C0 7.87065 0.114137 8.1462 0.317301 8.34937C0.520465 8.55253 0.796015 8.66667 1.08333 8.66667C1.37065 8.66667 1.6462 8.55253 1.84937 8.34937C2.05253 8.1462 2.16667 7.87065 2.16667 7.58333C2.16667 7.29602 2.05253 7.02046 1.84937 6.8173C1.6462 6.61414 1.37065 6.5 1.08333 6.5ZM12.2778 6.5C12.0862 6.5 11.9025 6.57609 11.7671 6.71153C11.6316 6.84698 11.5556 7.03068 11.5556 7.22222C11.5556 7.41377 11.6316 7.59747 11.7671 7.73291C11.9025 7.86835 12.0862 7.94444 12.2778 7.94444C12.4693 7.94444 12.653 7.86835 12.7885 7.73291C12.9239 7.59747 13 7.41377 13 7.22222C13 7.03068 12.9239 6.84698 12.7885 6.71153C12.653 6.57609 12.4693 6.5 12.2778 6.5ZM3.25 10.1111C2.96268 10.1111 2.68713 10.2252 2.48397 10.4284C2.2808 10.6316 2.16667 10.9071 2.16667 11.1944C2.16667 11.4818 2.2808 11.7573 2.48397 11.9605C2.68713 12.1636 2.96268 12.2778 3.25 12.2778C3.53732 12.2778 3.81287 12.1636 4.01603 11.9605C4.2192 11.7573 4.33333 11.4818 4.33333 11.1944C4.33333 10.9071 4.2192 10.6316 4.01603 10.4284C3.81287 10.2252 3.53732 10.1111 3.25 10.1111ZM10.8333 10.1111C10.6418 10.1111 10.4581 10.1872 10.3226 10.3226C10.1872 10.4581 10.1111 10.6418 10.1111 10.8333C10.1111 11.0249 10.1872 11.2086 10.3226 11.344C10.4581 11.4795 10.6418 11.5556 10.8333 11.5556C11.0249 11.5556 11.2086 11.4795 11.344 11.344C11.4795 11.2086 11.5556 11.0249 11.5556 10.8333C11.5556 10.6418 11.4795 10.4581 11.344 10.3226C11.2086 10.1872 11.0249 10.1111 10.8333 10.1111ZM6.86111 10.8333C6.57379 10.8333 6.29824 10.9475 6.09508 11.1506C5.89191 11.3538 5.77778 11.6293 5.77778 11.9167C5.77778 12.204 5.89191 12.4795 6.09508 12.6827C6.29824 12.8859 6.57379 13 6.86111 13C7.14843 13 7.42398 12.8859 7.62714 12.6827C7.83031 12.4795 7.94444 12.204 7.94444 11.9167C7.94444 11.6293 7.83031 11.3538 7.62714 11.1506C7.42398 10.9475 7.14843 10.8333 6.86111 10.8333Z" fill="#B4EBFA"/>
</g>
<defs>
<clipPath id="clip0_4918_39597">
<rect width="13" height="13" fill="white"/>
</clipPath>
</defs>
</svg>
