<svg width="13" height="13" viewBox="0 0 13 13" fill="none" xmlns="http://www.w3.org/2000/svg">
<path fill-rule="evenodd" clip-rule="evenodd" d="M0 6.5C0 10.0913 2.90875 13 6.5 13C10.0913 13 13 10.0913 13 6.5C13 2.90875 10.0913 0 6.5 0C2.90875 0 0 2.90875 0 6.5ZM9.17313 4.29812C9.31938 4.15188 9.5225 4.0625 9.75 4.0625C10.1969 4.0625 10.5625 4.42812 10.5625 4.875C10.5625 5.1025 10.4731 5.30562 10.3269 5.45188L6.26438 9.51437C6.11812 9.66063 5.915 9.75 5.6875 9.75C5.46 9.75 5.25688 9.66063 5.11062 9.51437L2.67313 7.07688C2.52688 6.93062 2.4375 6.7275 2.4375 6.5C2.4375 6.05312 2.80312 5.6875 3.25 5.6875C3.4775 5.6875 3.68062 5.77688 3.82687 5.92312L5.6875 7.79187L9.17313 4.29812Z" fill="#52BD94"/>
</svg>
